<svg width="578" height="578" viewBox="0 0 578 578" fill="none" xmlns="http://www.w3.org/2000/svg">
<g clip-path="url(#clip0_2559_361)">
<path d="M146.935 486.25C129.522 486.25 113.159 479.47 100.841 467.14C88.5232 454.825 81.75 438.445 81.75 421V157C81.75 139.57 88.5382 123.175 100.841 110.845C113.159 98.53 129.522 91.75 146.935 91.75C164.348 91.75 180.711 98.53 193.029 110.86L359.873 277.87C366.001 284.005 366.001 294.01 359.873 300.145C356.906 303.115 352.949 304.75 348.739 304.75C344.528 304.75 340.587 303.115 337.605 300.145L170.776 133.135C164.408 126.76 155.926 123.25 146.92 123.25C137.914 123.25 129.447 126.76 123.079 133.135C116.71 139.525 113.204 148 113.204 157V421C113.204 430.015 116.71 438.49 123.079 444.85C129.447 451.225 137.914 454.75 146.92 454.75C155.926 454.75 164.393 451.24 170.776 444.85L217.395 398.185C220.362 395.215 224.318 393.58 228.514 393.58C232.709 393.58 236.665 395.215 239.647 398.185C245.761 404.32 245.761 414.325 239.647 420.46L193.014 467.125C180.711 479.44 164.333 486.235 146.92 486.235L146.935 486.25Z" fill="#00C3B1"/>
<path d="M497 157V421C497 437.89 490.557 454.78 477.685 467.68C451.94 493.45 410.192 493.45 384.433 467.68L217.604 300.67C211.161 294.235 211.161 283.78 217.604 277.345C224.048 270.895 234.477 270.895 240.921 277.345L407.75 444.34C420.622 457.225 441.496 457.225 454.368 444.34C460.812 437.89 464.033 429.46 464.033 421V157C464.033 148.57 460.812 140.11 454.368 133.675C441.496 120.79 420.622 120.79 407.75 133.675L382.32 159.13L367.365 174.1L361.131 180.34C354.687 186.79 344.258 186.79 337.814 180.34C331.386 173.905 331.386 163.45 337.814 157L384.433 110.335C410.192 84.5651 451.94 84.5651 477.685 110.335C490.557 123.22 497 140.11 497 157Z" fill="#00C3B1"/>
</g>
<defs>
<clipPath id="clip0_2559_361">
<rect width="416" height="396" fill="white" transform="translate(81 91)"/>
</clipPath>
</defs>
</svg>
